<?xml version="1.0" encoding="UTF-8"?>
<!-- Generator: Adobe Illustrator 19.1.0, SVG Export Plug-In . SVG Version: 6.00 Build 0)  -->
<svg xmlns="http://www.w3.org/2000/svg" xmlns:xlink="http://www.w3.org/1999/xlink" xmlns:dc="http://purl.org/dc/elements/1.1/" xmlns:cc="http://creativecommons.org/ns#" xmlns:rdf="http://www.w3.org/1999/02/22-rdf-syntax-ns#" version="1.1" id="DESIGNS" x="0px" y="0px" width="32px" height="32px" viewBox="0 0 32 32" style="enable-background:new 0 0 32 32;" xml:space="preserve">
<title property="dc:title">to stack</title><desc property="dc:description">An icon for "stack" from the Isometric series on to [icon]. Downloaded from http://www.toicon.com/icons/isometric_stack by 218.173.100.246 on 2016-04-22. Licensed CC-BY, see http://toicon.com/license/ for details.</desc>
<g>
	<polygon class="isometric_zeven" points="16.025,28.992 8.025,24.373 8.025,20.611 16.025,25.23  " style="fill: #FF7344;"/>
	<polygon class="isometric_negen" points="16.025,28.992 23.975,24.373 23.975,20.611 16.025,25.23  " style="fill: #BE1E2D;"/>
	<polygon class="isometric_acht" points="16.025,22.496 10.402,19.25 8.025,20.611 16.025,25.23 23.975,20.611 21.627,19.241  " style="fill: #F05A28;"/>
	<polygon class="isometric_tien" points="16.025,22.496 8.025,17.877 8.025,14.116 16.025,18.734  " style="fill: #7BD6C4;"/>
	<polygon class="isometric_dertien" points="16.025,22.496 23.975,17.877 23.975,14.116 16.025,18.734  " style="fill: #225B49;"/>
	<polygon class="isometric_twaalf" points="16.025,16 10.402,12.754 8.025,14.116 16.025,18.734 23.975,14.116 21.627,12.745  " style="fill: #569080;"/>
	<polygon class="isometric_een" points="16.025,16 8.025,11.381 8.025,7.62 16.025,12.239  " style="fill: #F8F7C5;"/>
	<polygon class="isometric_vier" points="16.025,16 23.975,11.381 23.975,7.62 16.025,12.239  " style="fill: #AD9A74;"/>
	<polygon class="isometric_drie" points="8.025,7.62 16.075,3.008 23.975,7.62 16.025,12.239  " style="fill: #F2D76C;"/>
</g>
<metadata><work rdf:about=""><format>image/svg+xml</format><type rdf:resource="http://purl.org/dc/dcmitype/StillImage"/><license rdf:resource="http://creativecommons.org/licenses/by/4.0/"/><attributionname>Jo Szczepanska</attributionname><attributionurl>http://www.toicon.com/icons/isometric_stack</attributionurl></work></metadata></svg>
